<svg width="52" height="31" viewBox="0 0 52 31" fill="none" xmlns="http://www.w3.org/2000/svg">
<path fill-rule="evenodd" clip-rule="evenodd" d="M0.235291 3.73529C0.235291 1.94849 1.68378 0.5 3.47058 0.5H48.7647C50.5515 0.5 52 1.94849 52 3.73529C52 5.5221 50.5515 6.97059 48.7647 6.97059H3.47058C1.68378 6.97059 0.235291 5.5221 0.235291 3.73529ZM0.235291 15.5C0.235291 13.7132 1.68378 12.2647 3.47058 12.2647H48.7647C50.5515 12.2647 52 13.7132 52 15.5C52 17.2868 50.5515 18.7353 48.7647 18.7353H3.47058C1.68378 18.7353 0.235291 17.2868 0.235291 15.5ZM0.235291 27.2647C0.235291 25.4779 1.68378 24.0294 3.47058 24.0294H48.7647C50.5515 24.0294 52 25.4779 52 27.2647C52 29.0515 50.5515 30.5 48.7647 30.5H3.47058C1.68378 30.5 0.235291 29.0515 0.235291 27.2647Z" fill="#F9F9F9"/>
</svg>
